<svg width="202" height="47" viewBox="0 0 202 47" fill="none" xmlns="http://www.w3.org/2000/svg">
<g clip-path="url(#clip0_1214_2247)">
<path d="M22 0C24 2 24 2 25 5C26.32 5 27.64 5 29 5C28.8762 6.17562 28.7525 7.35125 28.625 8.5625C28.6088 13.1601 30.2876 14.9994 33.3984 18.1914C35.9975 21.1264 37.3803 24.4492 39 28C22.3475 43.124 22.3475 43.124 16 46C16.5515 40.7612 17.4292 36.0265 19 31C17.8244 31.5156 16.6487 32.0312 15.4375 32.5625C11.2623 34.107 8.34837 34.338 4 33C1.19568 30.4114 0.0896858 29.009 -0.25 25.1875C-0.1675 24.4656 -0.085 23.7437 0 23C1.2684 22.4938 2.53983 21.9953 3.8125 21.5C4.5202 21.2216 5.22789 20.9431 5.95703 20.6562C8 20 8 20 11 20C11 18.68 11 17.36 11 16C12.485 15.1028 12.485 15.1028 14 14.1875C14.99 13.4656 15.98 12.7437 17 12C17.5013 8.33142 17.5013 8.33142 17 5C17.99 5 18.98 5 20 5C20.66 3.35 21.32 1.7 22 0Z" fill="white"/>
<path d="M22 0C24 2 24 2 25 5C26.32 5 27.64 5 29 5C28.67 7.64 28.34 10.28 28 13C26.3543 13.0269 24.7084 13.0463 23.0625 13.0625C22.146 13.0741 21.2295 13.0857 20.2852 13.0977C18 13 18 13 17 12C16.9591 9.66703 16.9576 7.33295 17 5C17.99 5 18.98 5 20 5C20.66 3.35 21.32 1.7 22 0Z" fill="#D0B05C"/>
<path d="M107 37C107.66 37 108.32 37 109 37C109 37.66 109 38.32 109 39C109.66 39 110.32 39 111 39C111 39.66 111 40.32 111 41C110.34 41 109.68 41 109 41C109 41.66 109 42.32 109 43C108.34 43 107.68 43 107 43C107 42.34 107 41.68 107 41C106.34 41 105.68 41 105 41C105 40.34 105 39.68 105 39C105.66 39 106.32 39 107 39C107 38.34 107 37.68 107 37Z" fill="#CEAC54"/>
<path d="M54.34 21.22L51.32 30.06C51.2 30.42 51.0533 30.6 50.88 30.6C50.7067 30.6133 50.5667 30.4267 50.46 30.04L46 17.44C45.92 17.2667 45.84 17.1067 45.76 16.96C45.6933 16.8 45.6 16.66 45.48 16.54C45.36 16.4333 45.2133 16.3533 45.04 16.3C44.8667 16.2333 44.6933 16.18 44.52 16.14C44.44 16.1267 44.3667 16.12 44.3 16.12C44.2467 16.1067 44.2 16.0867 44.16 16.06C44.12 16.0333 44.0933 15.9933 44.08 15.94C44.0667 15.8867 44.06 15.8133 44.06 15.72C44.06 15.6267 44.0667 15.56 44.08 15.52C44.1067 15.4667 44.14 15.4333 44.18 15.42C44.22 15.3933 44.2733 15.38 44.34 15.38C44.4067 15.38 44.4867 15.38 44.58 15.38C44.62 15.38 44.7267 15.3867 44.9 15.4C45.0733 15.4 45.2733 15.4 45.5 15.4C45.7133 15.4133 45.9267 15.42 46.14 15.42C46.3667 15.42 46.54 15.42 46.66 15.42C46.78 15.42 46.9467 15.42 47.16 15.42C47.3733 15.42 47.5867 15.4133 47.8 15.4C48.0267 15.4 48.2267 15.4 48.4 15.4C48.5733 15.3867 48.68 15.38 48.72 15.38C48.8 15.38 48.8733 15.38 48.94 15.38C49.0067 15.38 49.06 15.3933 49.1 15.42C49.14 15.4333 49.1733 15.4667 49.2 15.52C49.2267 15.56 49.24 15.6267 49.24 15.72C49.24 15.9067 49.2 16.02 49.12 16.06C49.0533 16.1 48.94 16.1267 48.78 16.14C48.62 16.1667 48.4933 16.2 48.4 16.24C48.3067 16.2667 48.2267 16.3067 48.16 16.36C48.08 16.4267 48.04 16.5 48.04 16.58C48.0533 16.66 48.08 16.7533 48.12 16.86L51.46 26.06L53.2 21.06C53.4667 20.3133 53.7067 19.58 53.92 18.86C54.1467 18.14 54.34 17.46 54.5 16.82C54.5133 16.6867 54.4867 16.58 54.42 16.5C54.3667 16.42 54.2867 16.3533 54.18 16.3C54.1 16.26 54 16.2333 53.88 16.22C53.7733 16.1933 53.66 16.1667 53.54 16.14C53.46 16.1267 53.3867 16.12 53.32 16.12C53.2667 16.1067 53.22 16.0867 53.18 16.06C53.14 16.0333 53.1133 15.9933 53.1 15.94C53.0867 15.8867 53.08 15.8133 53.08 15.72C53.08 15.6267 53.0867 15.56 53.1 15.52C53.1267 15.4667 53.16 15.4333 53.2 15.42C53.24 15.3933 53.2933 15.38 53.36 15.38C53.4267 15.38 53.5067 15.38 53.6 15.38C53.6267 15.38 53.7267 15.3867 53.9 15.4C54.0867 15.4 54.2867 15.4 54.5 15.4C54.7267 15.4133 54.9467 15.42 55.16 15.42C55.3867 15.42 55.56 15.42 55.68 15.42C55.8 15.42 55.9333 15.42 56.08 15.42C56.24 15.42 56.3933 15.4133 56.54 15.4C56.6867 15.4 56.8133 15.4 56.92 15.4C57.04 15.3867 57.1267 15.38 57.18 15.38C57.26 15.38 57.3333 15.38 57.4 15.38C57.4667 15.38 57.52 15.3933 57.56 15.42C57.6 15.4333 57.6333 15.4667 57.66 15.52C57.6867 15.56 57.7 15.6267 57.7 15.72C57.7 15.9067 57.66 16.0267 57.58 16.08C57.5133 16.12 57.4 16.14 57.24 16.14C57.1067 16.1533 56.9733 16.18 56.84 16.22C56.72 16.2467 56.6 16.2867 56.48 16.34C56.3733 16.3933 56.2533 16.5 56.12 16.66C56 16.82 55.8933 17.0333 55.8 17.3C55.6933 17.58 55.5733 17.88 55.44 18.2C55.32 18.52 55.2 18.8467 55.08 19.18C54.9467 19.5133 54.8133 19.8533 54.68 20.2C54.56 20.5467 54.4467 20.8867 54.34 21.22ZM61.2509 30.1C61.1309 30.1 60.9443 30.1 60.6909 30.1C60.4509 30.1133 60.2043 30.12 59.9509 30.12C59.6976 30.1333 59.4709 30.14 59.2709 30.14C59.0709 30.14 58.9576 30.14 58.9309 30.14C58.8376 30.14 58.7576 30.14 58.6909 30.14C58.6243 30.1533 58.5709 30.1467 58.5309 30.12C58.4909 30.1067 58.4576 30.0733 58.4309 30.02C58.4176 29.98 58.4109 29.9067 58.4109 29.8C58.4109 29.6267 58.4443 29.5133 58.5109 29.46C58.5909 29.42 58.7109 29.3933 58.8709 29.38C59.0309 29.38 59.1976 29.36 59.3709 29.32C59.5576 29.28 59.7243 29.2333 59.8709 29.18C59.9643 29.14 60.0443 29.06 60.1109 28.94C60.1909 28.8067 60.2309 28.5933 60.2309 28.3V17.2C60.2309 16.92 60.1909 16.7133 60.1109 16.58C60.0443 16.4467 59.9643 16.36 59.8709 16.32C59.7243 16.28 59.5576 16.24 59.3709 16.2C59.1976 16.16 59.0309 16.1333 58.8709 16.12C58.7109 16.12 58.5909 16.1 58.5109 16.06C58.4443 16.0067 58.4109 15.8867 58.4109 15.7C58.4109 15.6067 58.4176 15.54 58.4309 15.5C58.4576 15.4467 58.4909 15.4133 58.5309 15.4C58.5709 15.3733 58.6243 15.36 58.6909 15.36C58.7576 15.36 58.8376 15.36 58.9309 15.36C58.9576 15.36 59.0709 15.3667 59.2709 15.38C59.4709 15.38 59.6976 15.38 59.9509 15.38C60.2043 15.3933 60.4509 15.4 60.6909 15.4C60.9309 15.4 61.1176 15.4 61.2509 15.4C61.3709 15.4 61.5509 15.4 61.7909 15.4C62.0309 15.4 62.2776 15.3933 62.5309 15.38C62.7843 15.38 63.0109 15.38 63.2109 15.38C63.4243 15.3667 63.5509 15.36 63.5909 15.36C63.6709 15.36 63.7443 15.36 63.8109 15.36C63.8776 15.36 63.9309 15.3733 63.9709 15.4C64.0109 15.4133 64.0443 15.4467 64.0709 15.5C64.0976 15.54 64.1109 15.6067 64.1109 15.7C64.1109 15.8867 64.0709 16.0067 63.9909 16.06C63.9243 16.1 63.8109 16.12 63.6509 16.12C63.4909 16.1333 63.3176 16.16 63.1309 16.2C62.9443 16.24 62.7843 16.28 62.6509 16.32C62.5443 16.36 62.4576 16.4467 62.3909 16.58C62.3243 16.7133 62.2909 16.92 62.2909 17.2V28.3C62.2909 28.5933 62.3243 28.8067 62.3909 28.94C62.4576 29.06 62.5443 29.14 62.6509 29.18C62.7843 29.2333 62.9443 29.28 63.1309 29.32C63.3176 29.36 63.4909 29.38 63.6509 29.38C63.8109 29.3933 63.9243 29.42 63.9909 29.46C64.0709 29.5133 64.1109 29.6267 64.1109 29.8C64.1109 29.9067 64.0976 29.98 64.0709 30.02C64.0443 30.0733 64.0109 30.1067 63.9709 30.12C63.9309 30.1467 63.8776 30.1533 63.8109 30.14C63.7443 30.14 63.6709 30.14 63.5909 30.14C63.5509 30.14 63.4243 30.14 63.2109 30.14C63.0109 30.14 62.7843 30.1333 62.5309 30.12C62.2776 30.12 62.0309 30.1133 61.7909 30.1C61.5509 30.1 61.3709 30.1 61.2509 30.1ZM67.1822 17.24C67.1822 17.0133 67.1489 16.8267 67.0822 16.68C67.0289 16.5333 66.9489 16.44 66.8422 16.4C66.7089 16.36 66.5555 16.3333 66.3822 16.32C66.2222 16.2933 66.0622 16.28 65.9022 16.28C65.7422 16.28 65.6155 16.2667 65.5222 16.24C65.4422 16.2 65.4022 16.08 65.4022 15.88C65.4022 15.8 65.4089 15.74 65.4222 15.7C65.4489 15.66 65.4822 15.6267 65.5222 15.6C65.5622 15.5733 65.6089 15.5533 65.6622 15.54C65.7155 15.5267 65.7755 15.5133 65.8422 15.5C66.6422 15.46 67.3889 15.4267 68.0822 15.4C68.7755 15.3733 69.5289 15.36 70.3422 15.36C71.4355 15.36 72.3555 15.4667 73.1022 15.68C73.8622 15.88 74.4755 16.16 74.9422 16.52C75.3955 16.88 75.7222 17.3133 75.9222 17.82C76.1355 18.3267 76.2422 18.8867 76.2422 19.5C76.2422 20.0867 76.1222 20.6333 75.8822 21.14C75.6555 21.6333 75.3155 22.0667 74.8622 22.44C74.3955 22.8133 73.8222 23.1067 73.1422 23.32C72.4622 23.52 71.6755 23.62 70.7822 23.62C70.5555 23.62 70.3889 23.5933 70.2822 23.54C70.1755 23.4867 70.1222 23.38 70.1222 23.22C70.1222 23.1 70.1622 23.0067 70.2422 22.94C70.3355 22.8733 70.4889 22.82 70.7022 22.78C71.6755 22.66 72.4755 22.3467 73.1022 21.84C73.7422 21.32 74.0622 20.5467 74.0622 19.52C74.0622 18.6 73.7755 17.8533 73.2022 17.28C72.6289 16.6933 71.7289 16.4 70.5022 16.4C70.3555 16.4 70.1889 16.4067 70.0022 16.42C69.8289 16.4333 69.6822 16.46 69.5622 16.5C69.4422 16.54 69.3622 16.6267 69.3222 16.76C69.2822 16.8933 69.2622 17.0933 69.2622 17.36V28.36C69.2622 28.6267 69.2955 28.82 69.3622 28.94C69.4289 29.06 69.5155 29.14 69.6222 29.18C69.7555 29.2333 69.9022 29.28 70.0622 29.32C70.2222 29.36 70.3822 29.38 70.5422 29.38C70.7022 29.3933 70.8155 29.42 70.8822 29.46C70.9622 29.5133 71.0022 29.6267 71.0022 29.8C71.0022 29.9067 70.9889 29.98 70.9622 30.02C70.9355 30.0733 70.9022 30.1067 70.8622 30.12C70.8222 30.1467 70.7689 30.1533 70.7022 30.14C70.6355 30.14 70.5622 30.14 70.4822 30.14C70.4289 30.14 70.3022 30.14 70.1022 30.14C69.9022 30.14 69.6822 30.1333 69.4422 30.12C69.2022 30.12 68.9622 30.1133 68.7222 30.1C68.4955 30.1 68.3222 30.1 68.2022 30.1C68.0822 30.1 67.8955 30.1 67.6422 30.1C67.4022 30.1133 67.1555 30.12 66.9022 30.12C66.6489 30.1333 66.4222 30.14 66.2222 30.14C66.0222 30.14 65.9089 30.14 65.8822 30.14C65.7889 30.14 65.7089 30.14 65.6422 30.14C65.5755 30.1533 65.5222 30.1467 65.4822 30.12C65.4422 30.1067 65.4089 30.0733 65.3822 30.02C65.3689 29.98 65.3622 29.9067 65.3622 29.8C65.3622 29.6267 65.3955 29.5133 65.4622 29.46C65.5422 29.42 65.6622 29.3933 65.8222 29.38C65.9822 29.38 66.1489 29.36 66.3222 29.32C66.5089 29.28 66.6755 29.2333 66.8222 29.18C66.9155 29.14 66.9955 29.06 67.0622 28.94C67.1422 28.8067 67.1822 28.5933 67.1822 28.3V17.24ZM92.8988 30.72C93.5254 30.72 94.0321 30.4933 94.4188 30.04C94.8188 29.6 95.0188 29.04 95.0188 28.36C95.0188 27.7067 94.8254 27.1533 94.4388 26.7C94.0521 26.2467 93.5388 26.02 92.8988 26.02C92.2454 26.02 91.7254 26.2467 91.3388 26.7C90.9654 27.1533 90.7788 27.7067 90.7788 28.36C90.7788 29.0133 90.9654 29.5667 91.3388 30.02C91.7254 30.4867 92.2454 30.72 92.8988 30.72ZM88.5788 28.54C88.5788 27.4733 88.9788 26.6133 89.7788 25.96C90.5788 25.2933 91.6188 24.96 92.8988 24.96C94.1788 24.96 95.2188 25.2867 96.0188 25.94C96.8188 26.5933 97.2188 27.46 97.2188 28.54C97.2188 29.6333 96.8188 30.5 96.0188 31.14C95.2188 31.7933 94.1788 32.12 92.8988 32.12C91.6188 32.12 90.5788 31.7933 89.7788 31.14C88.9788 30.4867 88.5788 29.62 88.5788 28.54ZM97.5788 20.26L94.0588 20.3V22.56C94.4988 22.56 94.8788 22.56 95.1988 22.56C95.5321 22.5467 95.8188 22.5333 96.0588 22.52C96.4588 22.5067 96.7854 22.4867 97.0388 22.46C97.3054 22.4333 97.4988 22.3933 97.6188 22.34C97.6721 22.3267 97.7388 22.3 97.8188 22.26C97.8988 22.22 97.9854 22.1867 98.0788 22.16C98.1721 22.1333 98.2588 22.1067 98.3388 22.08C98.4321 22.0533 98.5188 22.0333 98.5988 22.02C99.0254 21.9933 99.4588 21.9933 99.8988 22.02C100.352 22.0333 100.765 22.08 101.139 22.16C101.405 22.2267 101.612 22.3267 101.759 22.46C101.919 22.58 101.992 22.74 101.979 22.94C101.952 23.1933 101.845 23.38 101.659 23.5C101.472 23.62 101.219 23.68 100.899 23.68C100.672 23.68 100.412 23.68 100.119 23.68C99.8254 23.6667 99.5054 23.66 99.1588 23.66C98.8254 23.6467 98.4654 23.64 98.0788 23.64C97.7054 23.6267 97.3254 23.62 96.9388 23.62C96.2988 23.62 95.5854 23.6267 94.7988 23.64C94.0254 23.6533 93.2588 23.6667 92.4988 23.68C91.7254 23.6933 90.9988 23.7133 90.3188 23.74C89.6388 23.7667 89.0788 23.7933 88.6388 23.82C88.5188 23.8333 88.4054 23.8533 88.2988 23.88C88.2054 23.9067 88.1121 23.9333 88.0188 23.96C87.9254 23.9867 87.8388 24.02 87.7588 24.06C87.6788 24.0867 87.5988 24.1133 87.5188 24.14C87.3188 24.22 87.0988 24.2867 86.8588 24.34C86.6188 24.38 86.3388 24.34 86.0188 24.22C85.7654 24.14 85.4588 24.0267 85.0988 23.88C84.7388 23.72 84.3788 23.54 84.0188 23.34C83.5388 23.06 83.3388 22.8067 83.4188 22.58C83.5121 22.3533 83.8188 22.2733 84.3388 22.34C84.7788 22.4067 85.3254 22.46 85.9788 22.5C86.6321 22.54 87.4054 22.56 88.2988 22.56C88.8854 22.56 89.4721 22.5667 90.0588 22.58C90.6454 22.58 91.2254 22.58 91.7988 22.58V20.32L89.6188 20.34C89.3654 20.3533 89.1121 20.34 88.8588 20.3C88.6188 20.26 88.3988 20.18 88.1988 20.06C87.9988 19.9533 87.8388 19.8067 87.7188 19.62C87.5988 19.42 87.5388 19.1667 87.5388 18.86V16.66C87.5388 16.22 87.4254 15.9133 87.1988 15.74C86.9854 15.5667 86.6454 15.4533 86.1788 15.4C86.0188 15.3867 85.9054 15.3333 85.8388 15.24C85.7721 15.1333 85.7521 15.02 85.7788 14.9C85.8188 14.7933 85.8988 14.6933 86.0188 14.6C86.1388 14.5067 86.3121 14.46 86.5388 14.46C86.7121 14.4733 86.9321 14.4867 87.1988 14.5C87.4788 14.5133 87.7788 14.5267 88.0988 14.54C88.4054 14.5667 88.7121 14.5933 89.0188 14.62C89.3388 14.6467 89.6388 14.6733 89.9188 14.7L93.6588 14.64C93.8188 14.64 94.0454 14.6267 94.3388 14.6C94.6454 14.56 94.9254 14.48 95.1788 14.36C95.2054 14.3467 95.2321 14.3333 95.2588 14.32C95.2988 14.2933 95.3388 14.2733 95.3788 14.26C95.4054 14.2333 95.4388 14.2133 95.4788 14.2C95.5321 14.1867 95.5854 14.1733 95.6388 14.16C95.9188 14.1333 96.2521 14.1333 96.6388 14.16C97.0388 14.1733 97.3588 14.1933 97.5988 14.22C97.8921 14.26 98.1121 14.3733 98.2588 14.56C98.4188 14.7333 98.4921 14.9133 98.4788 15.1C98.4788 15.2867 98.3921 15.46 98.2188 15.62C98.0588 15.7667 97.8188 15.84 97.4988 15.84L89.8188 15.88V18.46C89.8188 18.7133 89.8988 18.8867 90.0588 18.98C90.2188 19.0733 90.3854 19.12 90.5588 19.12L93.8188 19.08C93.9254 19.08 94.1321 19.06 94.4388 19.02C94.7454 18.9667 95.0321 18.8667 95.2988 18.72C95.3254 18.7067 95.3654 18.6867 95.4188 18.66C95.4854 18.62 95.5588 18.5933 95.6388 18.58C95.9188 18.5533 96.2721 18.5533 96.6988 18.58C97.1388 18.6067 97.4721 18.6333 97.6988 18.66C98.0188 18.7267 98.2521 18.8467 98.3988 19.02C98.5454 19.18 98.6121 19.3533 98.5988 19.54C98.5721 19.7267 98.4721 19.8933 98.2988 20.04C98.1254 20.1867 97.8854 20.26 97.5788 20.26ZM110.55 22.78C109.896 22.7933 109.296 22.8133 108.75 22.84C108.216 22.8533 107.77 22.8733 107.41 22.9C107.29 22.9133 107.176 22.9333 107.07 22.96C106.976 22.9867 106.883 23.0133 106.79 23.04C106.696 23.0667 106.61 23.1 106.53 23.14C106.45 23.1667 106.37 23.1933 106.29 23.22C106.09 23.3 105.87 23.3667 105.63 23.42C105.39 23.46 105.11 23.42 104.79 23.3C104.536 23.22 104.23 23.1067 103.87 22.96C103.51 22.8 103.15 22.62 102.79 22.42C102.31 22.14 102.116 21.8867 102.21 21.66C102.303 21.4333 102.61 21.3533 103.13 21.42C103.57 21.4867 104.116 21.54 104.77 21.58C105.423 21.62 106.196 21.64 107.09 21.64C107.89 21.64 108.67 21.6467 109.43 21.66C110.203 21.66 110.93 21.66 111.61 21.66C112.29 21.66 112.903 21.66 113.45 21.66C113.996 21.6467 114.45 21.6267 114.81 21.6C115.21 21.5867 115.536 21.5667 115.79 21.54C116.056 21.5133 116.25 21.4733 116.37 21.42C116.423 21.4067 116.49 21.38 116.57 21.34C116.663 21.3 116.75 21.2667 116.83 21.24C116.923 21.2133 117.01 21.1867 117.09 21.16C117.183 21.1333 117.27 21.1133 117.35 21.1C117.776 21.0733 118.21 21.0733 118.65 21.1C119.103 21.1133 119.516 21.16 119.89 21.24C120.156 21.3067 120.37 21.4067 120.53 21.54C120.69 21.66 120.756 21.82 120.73 22.02C120.703 22.2733 120.596 22.46 120.41 22.58C120.223 22.7 119.97 22.76 119.65 22.76C119.423 22.76 119.163 22.76 118.87 22.76C118.576 22.7467 118.256 22.74 117.91 22.74C117.576 22.7267 117.216 22.72 116.83 22.72C116.456 22.7067 116.076 22.7 115.69 22.7C115.276 22.7 114.823 22.7067 114.33 22.72C113.85 22.72 113.343 22.7267 112.81 22.74V24.9C113.036 24.9 113.223 24.8933 113.37 24.88C113.516 24.8667 113.643 24.8467 113.75 24.82C113.83 24.82 113.923 24.8067 114.03 24.78C114.15 24.7533 114.23 24.7267 114.27 24.7C114.31 24.6733 114.356 24.6467 114.41 24.62C114.463 24.5933 114.536 24.5733 114.63 24.56C114.95 24.5333 115.316 24.5333 115.73 24.56C116.143 24.5733 116.463 24.6 116.69 24.64C116.89 24.6933 116.996 24.7933 117.01 24.94C117.036 25.0733 117.03 25.2133 116.99 25.36C116.963 25.4133 116.936 25.4667 116.91 25.52C116.896 25.5733 116.883 25.6333 116.87 25.7C116.843 25.7533 116.816 25.8067 116.79 25.86C116.776 25.9133 116.763 25.9667 116.75 26.02L116.29 27.7C116.45 27.7133 116.61 27.7533 116.77 27.82C116.93 27.8733 117.01 28 117.01 28.2C117.01 28.36 116.95 28.4933 116.83 28.6C116.71 28.7067 116.47 28.76 116.11 28.76C115.816 28.76 115.336 28.7667 114.67 28.78C114.016 28.78 113.323 28.78 112.59 28.78C111.87 28.7933 111.19 28.8 110.55 28.8C109.91 28.8 109.463 28.8 109.21 28.8V29.96C109.21 30.2 109.29 30.3667 109.45 30.46C109.61 30.5533 109.79 30.6 109.99 30.6L113.53 30.56C113.77 30.56 114.016 30.5467 114.27 30.52C114.536 30.4933 114.79 30.4067 115.03 30.26C115.043 30.26 115.063 30.2467 115.09 30.22C115.13 30.2067 115.163 30.1933 115.19 30.18C115.23 30.1667 115.27 30.1533 115.31 30.14C115.35 30.1267 115.39 30.1133 115.43 30.1C115.696 30.0867 116.01 30.0867 116.37 30.1C116.743 30.1133 117.043 30.1267 117.27 30.14C117.523 30.1667 117.723 30.26 117.87 30.42C118.016 30.58 118.096 30.7467 118.11 30.92C118.11 31.1067 118.036 31.2667 117.89 31.4C117.743 31.5467 117.516 31.62 117.21 31.62L109.03 31.68C108.763 31.68 108.503 31.6667 108.25 31.64C108.01 31.6267 107.796 31.5733 107.61 31.48C107.423 31.3867 107.27 31.2467 107.15 31.06C107.043 30.8867 106.99 30.6467 106.99 30.34V29.32C106.99 29.0267 106.91 28.8133 106.75 28.68C106.603 28.5467 106.356 28.44 106.01 28.36C105.663 28.2667 105.516 28.1067 105.57 27.88C105.636 27.64 105.823 27.52 106.13 27.52C106.45 27.52 106.916 27.5333 107.53 27.56C108.156 27.5867 108.743 27.64 109.29 27.72C109.49 27.7333 109.823 27.74 110.29 27.74C110.756 27.74 111.25 27.74 111.77 27.74C112.29 27.74 112.79 27.74 113.27 27.74C113.763 27.7267 114.136 27.7133 114.39 27.7L114.41 25.9C114.21 25.9 113.896 25.9067 113.47 25.92C113.043 25.92 112.603 25.92 112.15 25.92C111.696 25.92 111.27 25.9267 110.87 25.94C110.483 25.94 110.23 25.94 110.11 25.94C109.856 25.9667 109.563 26.0267 109.23 26.12C108.896 26.2133 108.676 26.28 108.57 26.32C108.49 26.36 108.396 26.3867 108.29 26.4C108.196 26.4 108.09 26.38 107.97 26.34C107.743 26.3 107.47 26.2133 107.15 26.08C106.83 25.9333 106.45 25.7 106.01 25.38C105.81 25.2333 105.75 25.08 105.83 24.92C105.91 24.76 106.13 24.7 106.49 24.74C106.876 24.78 107.316 24.82 107.81 24.86C108.316 24.9 108.796 24.92 109.25 24.92C109.396 24.92 109.576 24.9267 109.79 24.94C110.016 24.94 110.27 24.94 110.55 24.94V22.78ZM115.77 19.78C115.676 19.78 115.503 19.7867 115.25 19.8C115.01 19.8 114.723 19.8 114.39 19.8C114.056 19.8133 113.69 19.8267 113.29 19.84C112.89 19.84 112.49 19.84 112.09 19.84C111.69 19.84 111.296 19.8467 110.91 19.86C110.536 19.86 110.196 19.8667 109.89 19.88C109.596 19.88 109.35 19.88 109.15 19.88C108.963 19.88 108.863 19.88 108.85 19.88C108.756 20.12 108.583 20.3333 108.33 20.52C108.076 20.6933 107.863 20.78 107.69 20.78C107.503 20.78 107.316 20.68 107.13 20.48C106.956 20.28 106.85 19.98 106.81 19.58L106.47 16.16C106.43 15.84 106.296 15.6133 106.07 15.48C105.843 15.3333 105.556 15.2267 105.21 15.16C105.116 15.1467 105.043 15.1 104.99 15.02C104.95 14.9267 104.936 14.8267 104.95 14.72C104.963 14.6267 105.01 14.54 105.09 14.46C105.183 14.38 105.323 14.3267 105.51 14.3C105.71 14.2867 105.95 14.2867 106.23 14.3C106.51 14.3 106.81 14.3133 107.13 14.34C107.436 14.3533 107.743 14.38 108.05 14.42C108.356 14.4467 108.636 14.4667 108.89 14.48C108.93 14.48 109.09 14.4867 109.37 14.5C109.663 14.5 110.016 14.5 110.43 14.5C110.843 14.5 111.276 14.5 111.73 14.5C112.196 14.4867 112.63 14.4667 113.03 14.44C113.283 14.44 113.503 14.4333 113.69 14.42C113.876 14.4067 114.003 14.3867 114.07 14.36C114.11 14.36 114.15 14.3467 114.19 14.32C114.23 14.2933 114.276 14.2733 114.33 14.26C114.37 14.2333 114.416 14.2133 114.47 14.2C114.536 14.1733 114.61 14.1533 114.69 14.14C115.01 14.14 115.363 14.1533 115.75 14.18C116.15 14.1933 116.463 14.22 116.69 14.26C116.93 14.34 117.05 14.46 117.05 14.62C117.05 14.7667 117.01 14.92 116.93 15.08C116.876 15.1867 116.816 15.3133 116.75 15.46C116.683 15.6067 116.63 15.7533 116.59 15.9L116.01 18.62C116.21 18.6333 116.396 18.6867 116.57 18.78C116.743 18.8733 116.83 19.0133 116.83 19.2C116.83 19.3867 116.723 19.5333 116.51 19.64C116.31 19.7333 116.063 19.78 115.77 19.78ZM114.27 15.54L108.69 15.6L108.85 18.68L114.11 18.64L114.27 15.54ZM128.181 23.34C126.741 23.34 125.621 22.9733 124.821 22.24C124.034 21.4933 123.641 20.5267 123.641 19.34C123.641 18.7533 123.747 18.2133 123.961 17.72C124.187 17.2267 124.501 16.8067 124.901 16.46C125.301 16.1133 125.774 15.84 126.321 15.64C126.881 15.44 127.501 15.34 128.181 15.34C129.541 15.34 130.627 15.7133 131.441 16.46C132.267 17.1933 132.681 18.1533 132.681 19.34C132.681 20.5267 132.287 21.4933 131.501 22.24C130.727 22.9733 129.621 23.34 128.181 23.34ZM128.181 16.66C127.461 16.66 126.881 16.9067 126.441 17.4C126.014 17.88 125.801 18.52 125.801 19.32C125.801 20.0533 126.007 20.6867 126.421 21.22C126.847 21.7533 127.434 22.02 128.181 22.02C128.927 22.02 129.501 21.7533 129.901 21.22C130.314 20.6867 130.521 20.0533 130.521 19.32C130.521 18.52 130.307 17.88 129.881 17.4C129.467 16.9067 128.901 16.66 128.181 16.66ZM134.761 24.76V15.94C134.761 15.6467 134.727 15.3933 134.661 15.18C134.607 14.9667 134.501 14.8 134.341 14.68C134.127 14.52 133.881 14.3933 133.601 14.3C133.321 14.1933 133.034 14.1133 132.741 14.06C132.634 14.0467 132.561 13.9933 132.521 13.9C132.481 13.8067 132.474 13.7067 132.501 13.6C132.527 13.5067 132.581 13.42 132.661 13.34C132.754 13.2467 132.874 13.2 133.021 13.2C133.274 13.2 133.567 13.22 133.901 13.26C134.234 13.2867 134.581 13.32 134.941 13.36C135.287 13.4133 135.627 13.4733 135.961 13.54C136.294 13.5933 136.587 13.6467 136.841 13.7C136.947 13.74 137.021 13.8267 137.061 13.96C137.101 14.0933 137.101 14.2267 137.061 14.36C137.007 14.56 136.967 14.7667 136.941 14.98C136.914 15.18 136.901 15.38 136.901 15.58V27.6C136.901 29.1333 136.794 30.3067 136.581 31.12C136.367 31.9467 136.041 32.3733 135.601 32.4C135.321 32.4267 135.107 32.12 134.961 31.48C134.827 30.8533 134.761 29.9067 134.761 28.64V25.72C134.201 25.8667 133.561 26.02 132.841 26.18C132.121 26.3267 131.387 26.4733 130.641 26.62C129.894 26.7667 129.161 26.9067 128.441 27.04C127.721 27.16 127.081 27.26 126.521 27.34C126.401 27.3667 126.287 27.3933 126.181 27.42C126.074 27.4467 125.974 27.48 125.881 27.52C125.774 27.5467 125.674 27.58 125.581 27.62C125.487 27.66 125.401 27.7 125.321 27.74C125.174 27.8067 125.014 27.8533 124.841 27.88C124.681 27.8933 124.494 27.86 124.281 27.78C123.947 27.6867 123.594 27.56 123.221 27.4C122.847 27.2267 122.487 27.0267 122.141 26.8C121.781 26.5733 121.614 26.3333 121.641 26.08C121.681 25.8267 121.927 25.7333 122.381 25.8C122.687 25.84 123.107 25.88 123.641 25.92C124.174 25.9467 124.641 25.9533 125.041 25.94C125.694 25.9267 126.427 25.8867 127.241 25.82C128.054 25.7533 128.887 25.6667 129.741 25.56C130.607 25.4533 131.467 25.3333 132.321 25.2C133.187 25.0667 134.001 24.92 134.761 24.76ZM154.092 24.64H152.872L152.772 28.18C152.905 28.18 153.058 28.1733 153.232 28.16C153.418 28.1467 153.545 28.1267 153.612 28.1C153.732 28.0467 153.885 27.98 154.072 27.9C154.258 27.82 154.432 27.7733 154.592 27.76C155.005 27.7333 155.438 27.7333 155.892 27.76C156.345 27.7733 156.752 27.82 157.112 27.9C157.378 27.9667 157.592 28.0667 157.752 28.2C157.912 28.32 157.985 28.48 157.972 28.68C157.945 28.9333 157.832 29.12 157.632 29.24C157.445 29.36 157.198 29.42 156.892 29.42C156.665 29.42 156.392 29.4133 156.072 29.4C155.765 29.4 155.425 29.4 155.052 29.4C154.692 29.3867 154.312 29.3733 153.912 29.36C153.525 29.36 153.138 29.36 152.752 29.36C152.112 29.36 151.425 29.3667 150.692 29.38C149.972 29.3933 149.258 29.4133 148.552 29.44C147.845 29.4533 147.178 29.4733 146.552 29.5C145.925 29.54 145.392 29.5733 144.952 29.6C144.832 29.6133 144.718 29.6333 144.612 29.66C144.518 29.6867 144.425 29.7133 144.332 29.74C144.252 29.7667 144.165 29.7933 144.072 29.82C143.992 29.86 143.912 29.8933 143.832 29.92C143.632 30 143.412 30.06 143.172 30.1C142.932 30.1533 142.652 30.12 142.332 30C142.078 29.92 141.772 29.8 141.412 29.64C141.052 29.4933 140.692 29.32 140.332 29.12C139.852 28.84 139.658 28.5867 139.752 28.36C139.845 28.1333 140.152 28.0533 140.672 28.12C141.112 28.1867 141.658 28.24 142.312 28.28C142.978 28.32 143.778 28.34 144.712 28.34H145.692L145.572 24.66C145.305 24.66 145.052 24.6467 144.812 24.62C144.585 24.5933 144.378 24.5333 144.192 24.44C144.005 24.36 143.858 24.2333 143.752 24.06C143.645 23.8733 143.592 23.6267 143.592 23.32V21.14C143.592 20.8067 143.505 20.56 143.332 20.4C143.158 20.24 142.872 20.12 142.472 20.04C142.152 19.96 142.018 19.8 142.072 19.56C142.125 19.32 142.292 19.1933 142.572 19.18C142.785 19.18 143.038 19.1867 143.332 19.2C143.638 19.2133 143.952 19.2267 144.272 19.24C144.592 19.2667 144.898 19.2933 145.192 19.32C145.498 19.3467 145.758 19.3667 145.972 19.38C146.398 19.4067 146.858 19.4267 147.352 19.44C147.845 19.44 148.345 19.44 148.852 19.44C149.345 19.4267 149.832 19.42 150.312 19.42C150.805 19.4067 151.258 19.3867 151.672 19.36L151.772 16.66C151.558 16.66 151.245 16.6667 150.832 16.68C150.432 16.68 149.998 16.68 149.532 16.68C149.065 16.68 148.605 16.6867 148.152 16.7C147.698 16.7 147.325 16.7067 147.032 16.72C146.898 16.7333 146.758 16.76 146.612 16.8C146.465 16.8267 146.325 16.86 146.192 16.9C146.045 16.94 145.918 16.98 145.812 17.02C145.718 17.0467 145.652 17.06 145.612 17.06C145.492 17.1267 145.345 17.1733 145.172 17.2C145.012 17.2267 144.812 17.2 144.572 17.12C144.332 17.0667 144.065 16.9667 143.772 16.82C143.492 16.66 143.158 16.4333 142.772 16.14C142.532 15.94 142.445 15.7533 142.512 15.58C142.592 15.4067 142.858 15.34 143.312 15.38C143.658 15.42 144.092 15.46 144.612 15.5C145.132 15.5267 145.618 15.54 146.072 15.54C146.405 15.5533 146.798 15.5667 147.252 15.58C147.718 15.58 148.192 15.58 148.672 15.58C149.138 15.58 149.592 15.5733 150.032 15.56C150.472 15.5467 150.832 15.52 151.112 15.48C151.165 15.48 151.212 15.48 151.252 15.48C151.305 15.4667 151.352 15.4533 151.392 15.44C151.432 15.44 151.472 15.44 151.512 15.44C151.552 15.4267 151.585 15.4133 151.612 15.4C151.652 15.3733 151.718 15.34 151.812 15.3C151.918 15.2467 152.038 15.22 152.172 15.22C152.492 15.22 152.838 15.2267 153.212 15.24C153.585 15.24 153.865 15.26 154.052 15.3C154.265 15.3667 154.405 15.4733 154.472 15.62C154.538 15.7667 154.532 15.9067 154.452 16.04C154.398 16.1467 154.338 16.28 154.272 16.44C154.205 16.6 154.158 16.7467 154.132 16.88L153.612 19.36C153.798 19.3733 153.965 19.42 154.112 19.5C154.258 19.5667 154.332 19.7067 154.332 19.92C154.332 20.1067 154.252 20.26 154.092 20.38C153.945 20.4867 153.678 20.54 153.292 20.54C152.998 20.54 152.492 20.5467 151.772 20.56C151.065 20.56 150.312 20.56 149.512 20.56C148.725 20.5733 147.985 20.58 147.292 20.58C146.598 20.58 146.125 20.58 145.872 20.58V22.86C145.872 23.1 145.945 23.2733 146.092 23.38C146.238 23.4733 146.412 23.52 146.612 23.52L150.212 23.5C150.318 23.5 150.438 23.5 150.572 23.5C150.705 23.5 150.838 23.4933 150.972 23.48C151.092 23.4667 151.218 23.4467 151.352 23.42C151.485 23.38 151.612 23.3267 151.732 23.26C151.745 23.26 151.765 23.2533 151.792 23.24C151.818 23.2133 151.852 23.1933 151.892 23.18C151.918 23.1667 151.952 23.1533 151.992 23.14C152.032 23.1267 152.072 23.1133 152.112 23.1C152.392 23.0733 152.758 23.0667 153.212 23.08C153.665 23.08 154.012 23.0933 154.252 23.12C154.558 23.1867 154.778 23.3 154.912 23.46C155.058 23.62 155.125 23.7933 155.112 23.98C155.085 24.1533 154.985 24.3067 154.812 24.44C154.652 24.5733 154.412 24.64 154.092 24.64ZM150.792 24.64L147.732 24.66L147.772 28.34L150.752 28.3L150.792 24.64ZM166.803 28.02V29.68C166.803 29.92 166.883 30.0867 167.043 30.18C167.203 30.2733 167.376 30.32 167.563 30.32L171.183 30.28C171.409 30.28 171.656 30.2667 171.923 30.24C172.189 30.2133 172.443 30.12 172.683 29.96C172.723 29.92 172.783 29.8867 172.863 29.86C172.943 29.8333 173.023 29.8133 173.103 29.8C173.409 29.7733 173.756 29.76 174.143 29.76C174.529 29.7733 174.836 29.7933 175.063 29.82C175.396 29.8733 175.629 29.98 175.763 30.14C175.896 30.3 175.963 30.46 175.963 30.62C175.949 30.82 175.849 30.9933 175.663 31.14C175.476 31.2867 175.223 31.36 174.903 31.36L166.583 31.44C166.329 31.44 166.083 31.42 165.843 31.38C165.603 31.3533 165.389 31.28 165.203 31.16C165.003 31.0533 164.843 30.9067 164.723 30.72C164.616 30.5333 164.563 30.2867 164.563 29.98V28.2C164.563 28.04 164.543 27.88 164.503 27.72C164.463 27.5467 164.376 27.42 164.243 27.34C164.083 27.2467 163.889 27.1733 163.663 27.12C163.449 27.0533 163.203 27 162.923 26.96C162.816 26.9467 162.743 26.9 162.703 26.82C162.676 26.7267 162.669 26.6333 162.683 26.54C162.709 26.4333 162.756 26.34 162.823 26.26C162.903 26.18 163.009 26.1267 163.143 26.1C163.289 26.0867 163.529 26.08 163.863 26.08C164.196 26.08 164.543 26.0867 164.903 26.1C165.276 26.1133 165.629 26.1333 165.963 26.16C166.309 26.1867 166.563 26.22 166.723 26.26C166.816 26.3 166.883 26.38 166.923 26.5C166.976 26.62 166.983 26.74 166.943 26.86C166.876 27.02 166.836 27.2133 166.823 27.44C166.809 27.6667 166.803 27.86 166.803 28.02ZM168.943 20.62C168.729 20.6333 168.543 20.6667 168.383 20.72C168.236 20.76 168.109 20.8067 168.003 20.86C167.883 20.9133 167.756 20.9533 167.623 20.98C167.489 20.9933 167.323 20.9667 167.123 20.9C166.963 20.86 166.756 20.7733 166.503 20.64C166.249 20.4933 165.989 20.3067 165.723 20.08C165.483 19.88 165.403 19.7133 165.483 19.58C165.576 19.4467 165.776 19.3867 166.083 19.4C166.176 19.4133 166.309 19.4267 166.483 19.44C166.669 19.44 166.869 19.4467 167.083 19.46C167.309 19.4733 167.543 19.48 167.783 19.48C168.023 19.48 168.263 19.48 168.503 19.48H168.943V16.9C168.943 16.6067 168.909 16.3533 168.843 16.14C168.789 15.9133 168.683 15.74 168.523 15.62C168.349 15.5 168.143 15.4 167.903 15.32C167.676 15.2267 167.436 15.1533 167.183 15.1C167.063 15.0733 166.983 15.0133 166.943 14.92C166.916 14.8267 166.916 14.7333 166.943 14.64C166.983 14.5333 167.043 14.44 167.123 14.36C167.216 14.28 167.336 14.24 167.483 14.24C167.989 14.24 168.549 14.2867 169.163 14.38C169.776 14.46 170.329 14.56 170.823 14.68C170.943 14.72 171.023 14.8067 171.063 14.94C171.103 15.06 171.109 15.1867 171.083 15.32C171.029 15.52 170.989 15.7267 170.963 15.94C170.949 16.1533 170.943 16.36 170.943 16.56V24.14C170.956 25.42 170.849 26.3733 170.623 27C170.396 27.6133 170.103 27.9267 169.743 27.94C169.476 27.9667 169.283 27.7733 169.163 27.36C169.043 26.9333 168.969 26.18 168.943 25.1V20.62ZM164.083 20.26C164.309 20.5 164.536 20.7333 164.763 20.96C165.003 21.1867 165.183 21.34 165.303 21.42C165.383 21.5 165.463 21.56 165.543 21.6C165.623 21.64 165.696 21.6733 165.763 21.7C165.829 21.7267 165.889 21.7467 165.943 21.76C165.996 21.7733 166.056 21.7867 166.123 21.8C166.189 21.84 166.263 21.88 166.343 21.92C166.423 21.96 166.483 22.02 166.523 22.1C166.589 22.2467 166.663 22.3867 166.743 22.52C166.823 22.6533 166.896 22.7867 166.963 22.92C167.043 23.0533 167.116 23.1867 167.183 23.32C167.263 23.4533 167.343 23.58 167.423 23.7C167.516 23.94 167.536 24.1667 167.483 24.38C167.429 24.5933 167.329 24.7533 167.183 24.86C167.049 24.9533 166.876 24.9733 166.663 24.92C166.463 24.8533 166.256 24.66 166.043 24.34C165.856 24.14 165.649 23.9133 165.423 23.66C165.209 23.3933 164.989 23.12 164.763 22.84C164.536 22.5733 164.303 22.32 164.063 22.08C163.836 21.8267 163.629 21.6133 163.443 21.44C162.856 22.16 162.243 22.84 161.603 23.48C160.963 24.12 160.323 24.6333 159.683 25.02C159.429 25.1933 159.209 25.3 159.023 25.34C158.849 25.38 158.709 25.3733 158.603 25.32C158.509 25.28 158.463 25.2067 158.463 25.1C158.463 24.98 158.523 24.86 158.643 24.74C159.763 23.7133 160.696 22.5933 161.443 21.38C162.203 20.1533 162.743 18.92 163.062 17.68C163.156 17.32 163.156 17.0467 163.062 16.86C162.969 16.6733 162.723 16.5067 162.323 16.36C161.976 16.2267 161.829 16.04 161.883 15.8C161.949 15.56 162.163 15.4533 162.523 15.48C162.936 15.52 163.396 15.6067 163.903 15.74C164.423 15.86 164.863 16.0067 165.223 16.18C165.396 16.2733 165.516 16.3667 165.583 16.46C165.649 16.5533 165.683 16.6533 165.683 16.76C165.683 16.88 165.656 17.0067 165.603 17.14C165.563 17.2733 165.516 17.42 165.463 17.58C165.289 18.02 165.083 18.4667 164.843 18.92C164.616 19.3733 164.363 19.82 164.083 20.26ZM174.463 15.6V24.32C174.476 25.6 174.363 26.5533 174.123 27.18C173.883 27.7933 173.583 28.1067 173.223 28.12C172.969 28.1467 172.776 27.9533 172.643 27.54C172.509 27.1267 172.443 26.3733 172.443 25.28V15.96C172.443 15.6667 172.409 15.4133 172.343 15.2C172.289 14.9733 172.183 14.8 172.023 14.68C171.849 14.5467 171.636 14.44 171.383 14.36C171.143 14.2667 170.876 14.1933 170.583 14.14C170.476 14.1267 170.403 14.0733 170.363 13.98C170.323 13.8867 170.323 13.7867 170.363 13.68C170.389 13.5867 170.443 13.5 170.523 13.42C170.616 13.3267 170.736 13.28 170.883 13.28C171.389 13.28 171.976 13.3267 172.643 13.42C173.323 13.5 173.909 13.6 174.403 13.72C174.509 13.76 174.583 13.8467 174.623 13.98C174.663 14.1133 174.663 14.2467 174.623 14.38C174.569 14.58 174.529 14.7867 174.503 15C174.476 15.2 174.463 15.4 174.463 15.6ZM192.533 15.58V27.6C192.547 29.1467 192.44 30.3267 192.213 31.14C192 31.9533 191.673 32.3733 191.233 32.4C190.953 32.4267 190.74 32.12 190.593 31.48C190.46 30.8533 190.393 29.9067 190.393 28.64V21.74H190.133C189.96 21.74 189.813 21.76 189.693 21.8C189.587 21.8267 189.493 21.8933 189.413 22C189.293 22.0533 189.167 22.0933 189.033 22.12C188.9 22.1333 188.733 22.1067 188.533 22.04C188.293 21.9333 188.08 21.8267 187.893 21.72C187.707 21.6133 187.54 21.52 187.393 21.44C187.26 21.36 187.147 21.2933 187.053 21.24C186.96 21.1867 186.9 21.16 186.873 21.16C186.887 21.32 186.813 21.48 186.653 21.64C186.507 21.8 186.267 21.8933 185.933 21.92C185.747 21.9467 185.487 21.9667 185.153 21.98C184.82 21.98 184.467 21.9867 184.093 22C183.72 22 183.353 22 182.993 22C182.633 22 182.327 22 182.073 22V24.58C182.073 24.86 182.14 25.0333 182.273 25.1C182.42 25.1667 182.593 25.1933 182.793 25.18C183.78 25.1267 184.733 25.0133 185.653 24.84C186.573 24.6667 187.507 24.4467 188.453 24.18C188.587 24.14 188.687 24.1533 188.753 24.22C188.82 24.2867 188.853 24.38 188.853 24.5C188.853 24.62 188.807 24.7467 188.713 24.88C188.633 25 188.513 25.1 188.353 25.18C187.86 25.4067 187.327 25.6267 186.753 25.84C186.18 26.0533 185.587 26.24 184.973 26.4C184.373 26.56 183.76 26.6933 183.133 26.8C182.52 26.9067 181.927 26.96 181.353 26.96C180.807 26.9733 180.413 26.8867 180.173 26.7C179.933 26.5133 179.813 26.12 179.813 25.52V18.7C179.813 18.2867 179.687 17.9933 179.433 17.82C179.193 17.6467 178.86 17.5267 178.433 17.46C178.3 17.4467 178.207 17.3933 178.153 17.3C178.1 17.2067 178.087 17.1067 178.113 17C178.14 16.8933 178.2 16.8 178.293 16.72C178.4 16.6267 178.547 16.5667 178.733 16.54C178.867 16.54 179.067 16.54 179.333 16.54C179.6 16.54 179.893 16.5467 180.213 16.56C180.52 16.5867 180.833 16.6133 181.153 16.64C181.487 16.6667 181.787 16.7 182.053 16.74C182.133 16.7667 182.287 16.7867 182.513 16.8C182.74 16.8 182.987 16.8 183.253 16.8C183.507 16.7867 183.76 16.7667 184.013 16.74C184.267 16.7133 184.473 16.66 184.633 16.58C184.66 16.5667 184.693 16.5467 184.733 16.52C184.787 16.4933 184.84 16.4667 184.893 16.44C184.947 16.4133 185 16.3933 185.053 16.38C185.107 16.3533 185.16 16.3333 185.213 16.32C185.493 16.2933 185.787 16.28 186.093 16.28C186.4 16.28 186.707 16.2867 187.013 16.3C187.293 16.3267 187.5 16.42 187.633 16.58C187.767 16.7267 187.827 16.8867 187.813 17.06C187.813 17.2467 187.727 17.42 187.553 17.58C187.393 17.7267 187.153 17.8133 186.833 17.84C186.62 17.8667 186.28 17.8867 185.813 17.9C185.36 17.9 184.887 17.9 184.393 17.9C183.887 17.9133 183.413 17.92 182.973 17.92C182.533 17.9067 182.233 17.9 182.073 17.9V20.9C182.233 20.9133 182.387 20.92 182.533 20.92C182.68 20.92 182.82 20.9133 182.953 20.9C183.087 20.8867 183.213 20.8667 183.333 20.84C183.453 20.8 183.573 20.74 183.693 20.66C183.76 20.62 183.833 20.5733 183.913 20.52C184.007 20.4667 184.107 20.4333 184.213 20.42C184.52 20.3933 184.833 20.38 185.153 20.38C185.487 20.3667 185.78 20.3733 186.033 20.4C186.1 20.4133 186.16 20.4267 186.213 20.44C186.28 20.4533 186.34 20.4667 186.393 20.48C186.46 20.5067 186.52 20.5267 186.573 20.54C186.64 20.5533 186.707 20.56 186.773 20.56C186.787 20.56 186.807 20.5533 186.833 20.54C186.873 20.5133 186.913 20.4933 186.953 20.48C187.007 20.48 187.067 20.48 187.133 20.48C187.2 20.4667 187.28 20.46 187.373 20.46C187.467 20.4733 187.6 20.4867 187.773 20.5C187.96 20.5133 188.147 20.52 188.333 20.52C188.507 20.5333 188.673 20.54 188.833 20.54C189.007 20.54 189.14 20.54 189.233 20.54C189.3 20.54 189.347 20.5467 189.373 20.56C189.4 20.56 189.44 20.56 189.493 20.56C189.56 20.56 189.653 20.56 189.773 20.56C189.907 20.56 190.113 20.56 190.393 20.56V15.94C190.393 15.6467 190.353 15.3933 190.273 15.18C190.207 14.9667 190.093 14.8 189.933 14.68C189.72 14.52 189.473 14.3933 189.193 14.3C188.913 14.1933 188.627 14.1133 188.333 14.06C188.227 14.0467 188.153 13.9933 188.113 13.9C188.073 13.8067 188.073 13.7067 188.113 13.6C188.14 13.5067 188.193 13.42 188.273 13.34C188.367 13.2467 188.487 13.2 188.633 13.2C188.887 13.2 189.18 13.22 189.513 13.26C189.86 13.2867 190.213 13.32 190.573 13.36C190.933 13.4133 191.28 13.4733 191.613 13.54C191.947 13.5933 192.24 13.6467 192.493 13.7C192.6 13.74 192.673 13.8267 192.713 13.96C192.753 14.0933 192.753 14.2267 192.713 14.36C192.66 14.56 192.613 14.7667 192.573 14.98C192.547 15.18 192.533 15.38 192.533 15.58Z" fill="white"/>
<path d="M114.92 42.036L113.54 38.814C113.5 38.714 113.462 38.61 113.426 38.502C113.39 38.394 113.372 38.308 113.372 38.244C113.308 38.248 113.248 38.252 113.192 38.256C113.14 38.256 113.092 38.258 113.048 38.262V37.8H114.818V38.196C114.67 38.192 114.556 38.224 114.476 38.292C114.4 38.36 114.398 38.482 114.47 38.658C114.562 38.882 114.654 39.108 114.746 39.336C114.838 39.564 114.93 39.79 115.022 40.014C115.09 40.182 115.148 40.33 115.196 40.458C115.244 40.582 115.3 40.72 115.364 40.872H115.37C115.414 40.752 115.46 40.618 115.508 40.47C115.56 40.322 115.61 40.18 115.658 40.044C115.71 39.904 115.76 39.764 115.808 39.624C115.86 39.484 115.912 39.346 115.964 39.21C116.016 39.07 116.066 38.93 116.114 38.79C116.134 38.722 116.166 38.63 116.21 38.514C116.258 38.398 116.308 38.308 116.36 38.244C116.296 38.248 116.214 38.252 116.114 38.256C116.014 38.256 115.942 38.258 115.898 38.262V37.8H117.248V38.196C117.112 38.2 116.994 38.25 116.894 38.346C116.794 38.442 116.7 38.606 116.612 38.838C116.544 39.014 116.476 39.192 116.408 39.372C116.344 39.548 116.278 39.726 116.21 39.906C116.146 40.082 116.08 40.26 116.012 40.44C115.944 40.616 115.876 40.794 115.808 40.974C115.744 41.15 115.678 41.326 115.61 41.502C115.546 41.678 115.48 41.856 115.412 42.036H114.92ZM119.27 38.196C119.182 38.2 119.106 38.212 119.042 38.232C118.978 38.252 118.928 38.298 118.892 38.37C118.86 38.438 118.844 38.554 118.844 38.718V41.016C118.844 41.124 118.842 41.228 118.838 41.328C118.834 41.428 118.828 41.504 118.82 41.556C118.884 41.548 118.964 41.544 119.06 41.544C119.16 41.54 119.23 41.538 119.27 41.538V42H117.548V41.604C117.64 41.6 117.716 41.588 117.776 41.568C117.84 41.548 117.888 41.502 117.92 41.43C117.956 41.358 117.974 41.242 117.974 41.082V38.784C117.974 38.676 117.976 38.572 117.98 38.472C117.988 38.372 117.994 38.296 117.998 38.244C117.934 38.248 117.854 38.252 117.758 38.256C117.662 38.256 117.592 38.258 117.548 38.262V37.8H119.27V38.196ZM119.868 41.604C119.96 41.6 120.036 41.588 120.096 41.568C120.16 41.548 120.208 41.502 120.24 41.43C120.276 41.358 120.294 41.242 120.294 41.082V38.784C120.294 38.676 120.296 38.572 120.3 38.472C120.308 38.372 120.314 38.296 120.318 38.244C120.254 38.248 120.174 38.252 120.078 38.256C119.982 38.256 119.912 38.258 119.868 38.262V37.8C120.152 37.796 120.436 37.794 120.72 37.794C121.004 37.794 121.288 37.792 121.572 37.788C121.924 37.784 122.23 37.83 122.49 37.926C122.754 38.022 122.956 38.17 123.096 38.37C123.24 38.57 123.308 38.83 123.3 39.15C123.296 39.31 123.258 39.468 123.186 39.624C123.114 39.776 123.008 39.916 122.868 40.044C122.728 40.168 122.552 40.27 122.34 40.35C122.128 40.43 121.88 40.474 121.596 40.482C121.508 40.486 121.43 40.488 121.362 40.488C121.298 40.488 121.232 40.486 121.164 40.482V41.01C121.164 41.122 121.162 41.228 121.158 41.328C121.154 41.428 121.148 41.504 121.14 41.556C121.184 41.552 121.24 41.55 121.308 41.55C121.376 41.546 121.442 41.544 121.506 41.544C121.574 41.54 121.622 41.538 121.65 41.538V42H119.868V41.604ZM121.164 40.032C121.208 40.036 121.252 40.04 121.296 40.044C121.34 40.048 121.386 40.05 121.434 40.05C121.654 40.05 121.832 40.014 121.968 39.942C122.108 39.866 122.21 39.758 122.274 39.618C122.338 39.474 122.37 39.3 122.37 39.096C122.37 38.896 122.342 38.736 122.286 38.616C122.234 38.496 122.166 38.408 122.082 38.352C121.998 38.292 121.91 38.254 121.818 38.238C121.726 38.218 121.642 38.208 121.566 38.208C121.482 38.208 121.41 38.218 121.35 38.238C121.29 38.258 121.244 38.302 121.212 38.37C121.18 38.438 121.164 38.542 121.164 38.682V40.032ZM125.001 42V41.586C125.113 41.586 125.203 41.554 125.271 41.49C125.339 41.426 125.395 41.342 125.439 41.238C125.487 41.134 125.533 41.022 125.577 40.902L126.747 37.692H127.167L128.445 40.962C128.469 41.022 128.501 41.114 128.541 41.238C128.581 41.358 128.605 41.464 128.613 41.556C128.681 41.548 128.745 41.544 128.805 41.544C128.869 41.54 128.921 41.538 128.961 41.538V42H127.347V41.604C127.459 41.604 127.535 41.582 127.575 41.538C127.619 41.49 127.639 41.426 127.635 41.346C127.631 41.266 127.609 41.176 127.569 41.076L127.449 40.746L126.147 40.77L126.051 41.052C126.031 41.104 126.001 41.182 125.961 41.286C125.925 41.386 125.891 41.47 125.859 41.538C125.923 41.53 125.999 41.526 126.087 41.526C126.179 41.522 126.245 41.52 126.285 41.52V42H125.001ZM126.297 40.32H127.299L127.023 39.57C126.971 39.426 126.925 39.282 126.885 39.138C126.845 38.99 126.815 38.86 126.795 38.748H126.789C126.773 38.816 126.749 38.918 126.717 39.054C126.685 39.19 126.635 39.352 126.567 39.54L126.297 40.32ZM129.201 42V41.61C129.313 41.61 129.393 41.588 129.441 41.544C129.489 41.5 129.519 41.438 129.531 41.358C129.547 41.274 129.555 41.18 129.555 41.076V40.068C129.555 39.996 129.557 39.916 129.561 39.828C129.565 39.736 129.571 39.646 129.579 39.558C129.515 39.562 129.439 39.566 129.351 39.57C129.267 39.57 129.203 39.572 129.159 39.576V39.12C129.343 39.12 129.499 39.11 129.627 39.09C129.755 39.07 129.855 39.046 129.927 39.018C130.003 38.99 130.055 38.964 130.083 38.94H130.377C130.385 38.992 130.389 39.03 130.389 39.054C130.389 39.078 130.389 39.102 130.389 39.126C130.393 39.146 130.401 39.184 130.413 39.24C130.493 39.176 130.585 39.12 130.689 39.072C130.793 39.02 130.897 38.98 131.001 38.952C131.105 38.92 131.197 38.904 131.277 38.904C131.645 38.904 131.905 39.01 132.057 39.222C132.213 39.43 132.291 39.766 132.291 40.23V41.034C132.291 41.09 132.289 41.17 132.285 41.274C132.281 41.374 132.275 41.47 132.267 41.562C132.335 41.554 132.407 41.55 132.483 41.55C132.559 41.546 132.617 41.544 132.657 41.544V42H131.085V41.61C131.197 41.61 131.277 41.588 131.325 41.544C131.377 41.5 131.409 41.438 131.421 41.358C131.437 41.274 131.445 41.18 131.445 41.076L131.439 40.224C131.439 39.964 131.401 39.772 131.325 39.648C131.253 39.52 131.129 39.456 130.953 39.456C130.853 39.456 130.753 39.478 130.653 39.522C130.557 39.566 130.475 39.618 130.407 39.678C130.407 39.734 130.407 39.792 130.407 39.852C130.407 39.908 130.407 39.964 130.407 40.02V41.034C130.407 41.09 130.405 41.17 130.401 41.274C130.397 41.374 130.391 41.47 130.383 41.562C130.447 41.554 130.517 41.55 130.593 41.55C130.673 41.546 130.733 41.544 130.773 41.544V42H129.201ZM133.027 41.61C133.139 41.61 133.219 41.588 133.267 41.544C133.315 41.5 133.345 41.438 133.357 41.358C133.373 41.274 133.381 41.18 133.381 41.076V40.08C133.381 40.008 133.383 39.926 133.387 39.834C133.391 39.738 133.397 39.646 133.405 39.558C133.341 39.562 133.265 39.566 133.177 39.57C133.093 39.57 133.029 39.572 132.985 39.576V39.12C133.169 39.12 133.325 39.11 133.453 39.09C133.581 39.07 133.681 39.046 133.753 39.018C133.829 38.99 133.881 38.964 133.909 38.94H134.233V41.034C134.233 41.09 134.231 41.17 134.227 41.274C134.223 41.374 134.217 41.47 134.209 41.562C134.273 41.554 134.343 41.55 134.419 41.55C134.499 41.546 134.559 41.544 134.599 41.544V42H133.027V41.61ZM133.777 38.466C133.641 38.466 133.529 38.418 133.441 38.322C133.353 38.226 133.309 38.11 133.309 37.974C133.309 37.838 133.355 37.722 133.447 37.626C133.539 37.53 133.647 37.482 133.771 37.482C133.899 37.482 134.005 37.53 134.089 37.626C134.177 37.722 134.221 37.838 134.221 37.974C134.221 38.11 134.181 38.226 134.101 38.322C134.021 38.418 133.913 38.466 133.777 38.466ZM134.99 42V41.61C135.102 41.61 135.182 41.588 135.23 41.544C135.278 41.5 135.308 41.438 135.32 41.358C135.336 41.274 135.344 41.18 135.344 41.076V40.068C135.344 39.996 135.346 39.916 135.35 39.828C135.354 39.736 135.36 39.646 135.368 39.558C135.304 39.562 135.228 39.566 135.14 39.57C135.056 39.57 134.992 39.572 134.948 39.576V39.12C135.132 39.12 135.288 39.11 135.416 39.09C135.544 39.07 135.644 39.046 135.716 39.018C135.792 38.99 135.844 38.964 135.872 38.94H136.166C136.174 38.98 136.178 39.03 136.178 39.09C136.182 39.15 136.186 39.2 136.19 39.24C136.326 39.136 136.472 39.054 136.628 38.994C136.788 38.934 136.938 38.904 137.078 38.904C137.262 38.904 137.414 38.938 137.534 39.006C137.654 39.07 137.75 39.168 137.822 39.3C137.966 39.18 138.124 39.084 138.296 39.012C138.472 38.94 138.64 38.904 138.8 38.904C139.124 38.904 139.368 38.998 139.532 39.186C139.7 39.37 139.784 39.692 139.784 40.152V41.034C139.784 41.09 139.782 41.17 139.778 41.274C139.774 41.374 139.768 41.47 139.76 41.562C139.824 41.554 139.894 41.55 139.97 41.55C140.05 41.546 140.11 41.544 140.15 41.544V42H138.632V41.61C138.724 41.61 138.79 41.588 138.83 41.544C138.874 41.5 138.902 41.438 138.914 41.358C138.926 41.274 138.932 41.18 138.932 41.076V40.158C138.928 39.898 138.884 39.718 138.8 39.618C138.72 39.518 138.612 39.466 138.476 39.462C138.372 39.458 138.274 39.476 138.182 39.516C138.094 39.556 138.014 39.604 137.942 39.66C137.962 39.74 137.976 39.828 137.984 39.924C137.992 40.02 137.996 40.122 137.996 40.23C137.996 40.366 137.996 40.5 137.996 40.632C137.996 40.764 137.996 40.898 137.996 41.034C137.996 41.09 137.994 41.17 137.99 41.274C137.986 41.374 137.98 41.47 137.972 41.562C138.036 41.554 138.106 41.55 138.182 41.55C138.258 41.546 138.318 41.544 138.362 41.544V42H136.814V41.61C136.918 41.61 136.992 41.588 137.036 41.544C137.084 41.5 137.114 41.438 137.126 41.358C137.138 41.274 137.144 41.18 137.144 41.076L137.138 40.14C137.138 39.88 137.1 39.702 137.024 39.606C136.948 39.51 136.842 39.46 136.706 39.456C136.606 39.456 136.512 39.478 136.424 39.522C136.34 39.566 136.264 39.618 136.196 39.678C136.196 39.73 136.196 39.78 136.196 39.828C136.196 39.876 136.196 39.926 136.196 39.978V41.034C136.196 41.09 136.194 41.17 136.19 41.274C136.186 41.374 136.18 41.47 136.172 41.562C136.236 41.554 136.302 41.55 136.37 41.55C136.438 41.546 136.492 41.544 136.532 41.544V42H134.99ZM142.178 42C142.17 41.944 142.164 41.898 142.16 41.862C142.16 41.822 142.158 41.776 142.154 41.724C142.018 41.86 141.874 41.956 141.722 42.012C141.57 42.068 141.416 42.096 141.26 42.096C141.004 42.096 140.804 42.02 140.66 41.868C140.516 41.716 140.444 41.526 140.444 41.298C140.444 41.106 140.492 40.942 140.588 40.806C140.688 40.67 140.818 40.56 140.978 40.476C141.142 40.388 141.322 40.322 141.518 40.278C141.718 40.23 141.918 40.202 142.118 40.194V39.882C142.118 39.778 142.104 39.684 142.076 39.6C142.052 39.516 142.008 39.45 141.944 39.402C141.884 39.354 141.798 39.332 141.686 39.336C141.61 39.34 141.536 39.356 141.464 39.384C141.392 39.412 141.33 39.452 141.278 39.504C141.31 39.54 141.33 39.58 141.338 39.624C141.346 39.664 141.35 39.7 141.35 39.732C141.35 39.812 141.318 39.896 141.254 39.984C141.19 40.068 141.088 40.108 140.948 40.104C140.828 40.1 140.736 40.058 140.672 39.978C140.608 39.898 140.576 39.804 140.576 39.696C140.576 39.536 140.632 39.398 140.744 39.282C140.86 39.162 141.014 39.07 141.206 39.006C141.398 38.938 141.61 38.904 141.842 38.904C142.194 38.904 142.466 38.996 142.658 39.18C142.854 39.36 142.952 39.65 142.952 40.05C142.952 40.186 142.952 40.302 142.952 40.398C142.952 40.494 142.95 40.59 142.946 40.686C142.946 40.782 142.946 40.898 142.946 41.034C142.946 41.09 142.944 41.17 142.94 41.274C142.936 41.374 142.93 41.47 142.922 41.562C142.99 41.554 143.062 41.55 143.138 41.55C143.214 41.546 143.272 41.544 143.312 41.544V42H142.178ZM142.112 40.62C142 40.632 141.894 40.652 141.794 40.68C141.694 40.708 141.606 40.746 141.53 40.794C141.458 40.842 141.4 40.9 141.356 40.968C141.316 41.036 141.296 41.112 141.296 41.196C141.3 41.308 141.336 41.388 141.404 41.436C141.472 41.484 141.55 41.508 141.638 41.508C141.73 41.508 141.816 41.488 141.896 41.448C141.976 41.408 142.048 41.356 142.112 41.292C142.112 41.252 142.112 41.214 142.112 41.178C142.112 41.138 142.112 41.098 142.112 41.058C142.112 40.986 142.112 40.914 142.112 40.842C142.112 40.766 142.112 40.692 142.112 40.62ZM143.56 41.61C143.672 41.61 143.752 41.588 143.8 41.544C143.852 41.5 143.884 41.438 143.896 41.358C143.908 41.274 143.914 41.18 143.914 41.076V38.61C143.914 38.538 143.916 38.456 143.92 38.364C143.924 38.268 143.93 38.176 143.938 38.088C143.874 38.092 143.798 38.096 143.71 38.1C143.626 38.1 143.562 38.102 143.518 38.106V37.65C143.706 37.65 143.862 37.64 143.986 37.62C144.114 37.6 144.214 37.576 144.286 37.548C144.362 37.52 144.414 37.494 144.442 37.47H144.766V41.034C144.766 41.09 144.764 41.17 144.76 41.274C144.756 41.374 144.75 41.47 144.742 41.562C144.81 41.554 144.882 41.55 144.958 41.55C145.034 41.546 145.092 41.544 145.132 41.544V42H143.56V41.61ZM149.303 42.06C149.167 41.728 149.031 41.398 148.895 41.07C148.763 40.742 148.629 40.414 148.493 40.086C148.461 40.01 148.419 39.904 148.367 39.768C148.319 39.628 148.267 39.468 148.211 39.288C148.159 39.108 148.111 38.922 148.067 38.73C148.075 38.954 148.081 39.166 148.085 39.366C148.089 39.562 148.089 39.75 148.085 39.93C148.085 40.018 148.085 40.108 148.085 40.2C148.085 40.292 148.083 40.384 148.079 40.476C148.079 40.564 148.079 40.654 148.079 40.746C148.079 40.834 148.079 40.924 148.079 41.016C148.079 41.124 148.075 41.228 148.067 41.328C148.063 41.428 148.057 41.504 148.049 41.556C148.117 41.548 148.199 41.544 148.295 41.544C148.395 41.54 148.465 41.538 148.505 41.538V42H147.137V41.604C147.229 41.6 147.305 41.588 147.365 41.568C147.429 41.548 147.477 41.502 147.509 41.43C147.545 41.358 147.563 41.242 147.563 41.082L147.599 38.784C147.603 38.676 147.607 38.572 147.611 38.472C147.615 38.372 147.619 38.296 147.623 38.244C147.559 38.248 147.479 38.252 147.383 38.256C147.287 38.256 147.217 38.258 147.173 38.262V37.8H148.499L149.405 40.122C149.441 40.214 149.481 40.322 149.525 40.446C149.569 40.566 149.611 40.684 149.651 40.8C149.691 40.912 149.721 41.002 149.741 41.07H149.747C149.799 40.93 149.847 40.794 149.891 40.662C149.935 40.53 149.981 40.402 150.029 40.278C150.185 39.862 150.339 39.448 150.491 39.036C150.647 38.624 150.803 38.212 150.959 37.8H152.345V38.196C152.257 38.2 152.179 38.212 152.111 38.232C152.043 38.252 151.991 38.298 151.955 38.37C151.923 38.438 151.909 38.554 151.913 38.718L152.003 41.016C152.011 41.124 152.011 41.228 152.003 41.328C151.995 41.428 151.987 41.504 151.979 41.556C152.047 41.548 152.129 41.544 152.225 41.544C152.325 41.54 152.395 41.538 152.435 41.538V42H150.767V41.604C150.859 41.6 150.937 41.588 151.001 41.568C151.069 41.548 151.119 41.502 151.151 41.43C151.187 41.358 151.201 41.242 151.193 41.082L151.145 39.81C151.145 39.762 151.141 39.68 151.133 39.564C151.125 39.444 151.117 39.314 151.109 39.174C151.105 39.03 151.101 38.896 151.097 38.772C151.085 38.8 151.073 38.828 151.061 38.856C151.049 38.88 151.039 38.906 151.031 38.934L149.861 42.06H149.303ZM154.219 42.096C153.927 42.096 153.669 42.032 153.445 41.904C153.221 41.772 153.047 41.588 152.923 41.352C152.799 41.112 152.737 40.83 152.737 40.506C152.737 40.226 152.799 39.964 152.923 39.72C153.047 39.476 153.221 39.28 153.445 39.132C153.673 38.98 153.937 38.904 154.237 38.904C154.405 38.904 154.569 38.928 154.729 38.976C154.889 39.02 155.033 39.098 155.161 39.21C155.293 39.322 155.397 39.474 155.473 39.666C155.553 39.858 155.591 40.098 155.587 40.386L153.619 40.422C153.619 40.638 153.645 40.832 153.697 41.004C153.753 41.176 153.843 41.312 153.967 41.412C154.091 41.512 154.257 41.562 154.465 41.562C154.545 41.562 154.635 41.548 154.735 41.52C154.839 41.492 154.943 41.446 155.047 41.382C155.155 41.314 155.255 41.224 155.347 41.112L155.617 41.364C155.473 41.568 155.319 41.724 155.155 41.832C154.991 41.936 154.827 42.006 154.663 42.042C154.503 42.078 154.355 42.096 154.219 42.096ZM153.655 40.002H154.759C154.755 39.834 154.731 39.702 154.687 39.606C154.647 39.506 154.591 39.434 154.519 39.39C154.447 39.346 154.363 39.324 154.267 39.324C154.091 39.324 153.953 39.388 153.853 39.516C153.753 39.64 153.687 39.802 153.655 40.002ZM157.183 42.096C156.943 42.096 156.731 42.034 156.547 41.91C156.367 41.786 156.225 41.61 156.121 41.382C156.021 41.154 155.971 40.886 155.971 40.578C155.971 40.254 156.033 39.966 156.157 39.714C156.281 39.462 156.455 39.264 156.679 39.12C156.903 38.976 157.163 38.904 157.459 38.904C157.567 38.904 157.663 38.916 157.747 38.94C157.835 38.96 157.917 38.984 157.993 39.012V38.616C157.993 38.56 157.995 38.48 157.999 38.376C158.003 38.272 158.009 38.176 158.017 38.088C157.953 38.092 157.877 38.096 157.789 38.1C157.701 38.104 157.635 38.106 157.591 38.106V37.65C157.779 37.65 157.935 37.64 158.059 37.62C158.187 37.6 158.287 37.576 158.359 37.548C158.435 37.52 158.487 37.494 158.515 37.47H158.839V41.034C158.839 41.09 158.837 41.17 158.833 41.274C158.829 41.374 158.823 41.47 158.815 41.562C158.883 41.554 158.955 41.55 159.031 41.55C159.107 41.546 159.165 41.544 159.205 41.544V42H158.065C158.061 41.956 158.055 41.91 158.047 41.862C158.043 41.814 158.037 41.768 158.029 41.724C157.897 41.86 157.761 41.956 157.621 42.012C157.481 42.068 157.335 42.096 157.183 42.096ZM157.495 41.55C157.599 41.55 157.695 41.524 157.783 41.472C157.871 41.416 157.941 41.346 157.993 41.262C157.993 41.202 157.993 41.142 157.993 41.082C157.993 41.022 157.993 40.962 157.993 40.902V39.462C157.953 39.43 157.893 39.404 157.813 39.384C157.733 39.36 157.651 39.348 157.567 39.348C157.383 39.352 157.239 39.41 157.135 39.522C157.031 39.634 156.957 39.776 156.913 39.948C156.873 40.12 156.853 40.3 156.853 40.488C156.853 40.656 156.873 40.822 156.913 40.986C156.957 41.15 157.025 41.286 157.117 41.394C157.213 41.498 157.339 41.55 157.495 41.55ZM159.6 41.61C159.712 41.61 159.792 41.588 159.84 41.544C159.888 41.5 159.918 41.438 159.93 41.358C159.946 41.274 159.954 41.18 159.954 41.076V40.08C159.954 40.008 159.956 39.926 159.96 39.834C159.964 39.738 159.97 39.646 159.978 39.558C159.914 39.562 159.838 39.566 159.75 39.57C159.666 39.57 159.602 39.572 159.558 39.576V39.12C159.742 39.12 159.898 39.11 160.026 39.09C160.154 39.07 160.254 39.046 160.326 39.018C160.402 38.99 160.454 38.964 160.482 38.94H160.806V41.034C160.806 41.09 160.804 41.17 160.8 41.274C160.796 41.374 160.79 41.47 160.782 41.562C160.846 41.554 160.916 41.55 160.992 41.55C161.072 41.546 161.132 41.544 161.172 41.544V42H159.6V41.61ZM160.35 38.466C160.214 38.466 160.102 38.418 160.014 38.322C159.926 38.226 159.882 38.11 159.882 37.974C159.882 37.838 159.928 37.722 160.02 37.626C160.112 37.53 160.22 37.482 160.344 37.482C160.472 37.482 160.578 37.53 160.662 37.626C160.75 37.722 160.794 37.838 160.794 37.974C160.794 38.11 160.754 38.226 160.674 38.322C160.594 38.418 160.486 38.466 160.35 38.466ZM162.978 42.096C162.71 42.096 162.464 42.036 162.24 41.916C162.016 41.796 161.836 41.622 161.7 41.394C161.568 41.166 161.502 40.89 161.502 40.566C161.502 40.338 161.54 40.124 161.616 39.924C161.692 39.724 161.798 39.548 161.934 39.396C162.074 39.244 162.238 39.124 162.426 39.036C162.618 38.948 162.83 38.904 163.062 38.904C163.318 38.904 163.53 38.944 163.698 39.024C163.87 39.1 163.998 39.202 164.082 39.33C164.17 39.454 164.214 39.586 164.214 39.726C164.214 39.842 164.178 39.946 164.106 40.038C164.038 40.126 163.94 40.172 163.812 40.176C163.66 40.18 163.554 40.138 163.494 40.05C163.434 39.958 163.404 39.87 163.404 39.786C163.404 39.75 163.41 39.708 163.422 39.66C163.434 39.608 163.452 39.562 163.476 39.522C163.448 39.462 163.406 39.418 163.35 39.39C163.294 39.362 163.236 39.344 163.176 39.336C163.12 39.324 163.074 39.32 163.038 39.324C162.846 39.336 162.688 39.432 162.564 39.612C162.44 39.792 162.378 40.052 162.378 40.392C162.378 40.592 162.402 40.78 162.45 40.956C162.502 41.128 162.586 41.27 162.702 41.382C162.818 41.494 162.974 41.554 163.17 41.562C163.338 41.566 163.502 41.526 163.662 41.442C163.822 41.358 163.958 41.244 164.07 41.1L164.346 41.37C164.202 41.57 164.052 41.722 163.896 41.826C163.74 41.93 163.584 42 163.428 42.036C163.276 42.076 163.126 42.096 162.978 42.096ZM166.336 42C166.328 41.944 166.322 41.898 166.318 41.862C166.318 41.822 166.316 41.776 166.312 41.724C166.176 41.86 166.032 41.956 165.88 42.012C165.728 42.068 165.574 42.096 165.418 42.096C165.162 42.096 164.962 42.02 164.818 41.868C164.674 41.716 164.602 41.526 164.602 41.298C164.602 41.106 164.65 40.942 164.746 40.806C164.846 40.67 164.976 40.56 165.136 40.476C165.3 40.388 165.48 40.322 165.676 40.278C165.876 40.23 166.076 40.202 166.276 40.194V39.882C166.276 39.778 166.262 39.684 166.234 39.6C166.21 39.516 166.166 39.45 166.102 39.402C166.042 39.354 165.956 39.332 165.844 39.336C165.768 39.34 165.694 39.356 165.622 39.384C165.55 39.412 165.488 39.452 165.436 39.504C165.468 39.54 165.488 39.58 165.496 39.624C165.504 39.664 165.508 39.7 165.508 39.732C165.508 39.812 165.476 39.896 165.412 39.984C165.348 40.068 165.246 40.108 165.106 40.104C164.986 40.1 164.894 40.058 164.83 39.978C164.766 39.898 164.734 39.804 164.734 39.696C164.734 39.536 164.79 39.398 164.902 39.282C165.018 39.162 165.172 39.07 165.364 39.006C165.556 38.938 165.768 38.904 166 38.904C166.352 38.904 166.624 38.996 166.816 39.18C167.012 39.36 167.11 39.65 167.11 40.05C167.11 40.186 167.11 40.302 167.11 40.398C167.11 40.494 167.108 40.59 167.104 40.686C167.104 40.782 167.104 40.898 167.104 41.034C167.104 41.09 167.102 41.17 167.098 41.274C167.094 41.374 167.088 41.47 167.08 41.562C167.148 41.554 167.22 41.55 167.296 41.55C167.372 41.546 167.43 41.544 167.47 41.544V42H166.336ZM166.27 40.62C166.158 40.632 166.052 40.652 165.952 40.68C165.852 40.708 165.764 40.746 165.688 40.794C165.616 40.842 165.558 40.9 165.514 40.968C165.474 41.036 165.454 41.112 165.454 41.196C165.458 41.308 165.494 41.388 165.562 41.436C165.63 41.484 165.708 41.508 165.796 41.508C165.888 41.508 165.974 41.488 166.054 41.448C166.134 41.408 166.206 41.356 166.27 41.292C166.27 41.252 166.27 41.214 166.27 41.178C166.27 41.138 166.27 41.098 166.27 41.058C166.27 40.986 166.27 40.914 166.27 40.842C166.27 40.766 166.27 40.692 166.27 40.62ZM167.718 41.61C167.83 41.61 167.91 41.588 167.958 41.544C168.01 41.5 168.042 41.438 168.054 41.358C168.066 41.274 168.072 41.18 168.072 41.076V38.61C168.072 38.538 168.074 38.456 168.078 38.364C168.082 38.268 168.088 38.176 168.096 38.088C168.032 38.092 167.956 38.096 167.868 38.1C167.784 38.1 167.72 38.102 167.676 38.106V37.65C167.864 37.65 168.02 37.64 168.144 37.62C168.272 37.6 168.372 37.576 168.444 37.548C168.52 37.52 168.572 37.494 168.6 37.47H168.924V41.034C168.924 41.09 168.922 41.17 168.918 41.274C168.914 41.374 168.908 41.47 168.9 41.562C168.968 41.554 169.04 41.55 169.116 41.55C169.192 41.546 169.25 41.544 169.29 41.544V42H167.718V41.61ZM174.41 39.144C174.358 38.812 174.246 38.562 174.074 38.394C173.906 38.226 173.682 38.14 173.402 38.136C173.194 38.136 173.012 38.184 172.856 38.28C172.7 38.376 172.57 38.504 172.466 38.664C172.366 38.824 172.29 39.006 172.238 39.21C172.19 39.414 172.166 39.624 172.166 39.84C172.166 40.184 172.214 40.49 172.31 40.758C172.41 41.022 172.554 41.23 172.742 41.382C172.93 41.534 173.158 41.61 173.426 41.61C173.678 41.61 173.928 41.546 174.176 41.418C174.424 41.286 174.632 41.104 174.8 40.872L175.088 41.136C174.892 41.404 174.686 41.608 174.47 41.748C174.254 41.884 174.042 41.976 173.834 42.024C173.63 42.072 173.446 42.096 173.282 42.096C172.974 42.096 172.694 42.042 172.442 41.934C172.19 41.822 171.972 41.67 171.788 41.478C171.608 41.282 171.468 41.056 171.368 40.8C171.272 40.54 171.224 40.26 171.224 39.96C171.224 39.688 171.268 39.418 171.356 39.15C171.444 38.882 171.574 38.64 171.746 38.424C171.922 38.204 172.142 38.03 172.406 37.902C172.67 37.77 172.976 37.704 173.324 37.704C173.48 37.704 173.65 37.73 173.834 37.782C174.022 37.83 174.198 37.902 174.362 37.998L174.338 37.746H174.8V39.144H174.41ZM176.813 42.096C176.521 42.096 176.263 42.032 176.039 41.904C175.815 41.772 175.641 41.588 175.517 41.352C175.393 41.112 175.331 40.83 175.331 40.506C175.331 40.226 175.393 39.964 175.517 39.72C175.641 39.476 175.815 39.28 176.039 39.132C176.267 38.98 176.531 38.904 176.831 38.904C176.999 38.904 177.163 38.928 177.323 38.976C177.483 39.02 177.627 39.098 177.755 39.21C177.887 39.322 177.991 39.474 178.067 39.666C178.147 39.858 178.185 40.098 178.181 40.386L176.213 40.422C176.213 40.638 176.239 40.832 176.291 41.004C176.347 41.176 176.437 41.312 176.561 41.412C176.685 41.512 176.851 41.562 177.059 41.562C177.139 41.562 177.229 41.548 177.329 41.52C177.433 41.492 177.537 41.446 177.641 41.382C177.749 41.314 177.849 41.224 177.941 41.112L178.211 41.364C178.067 41.568 177.913 41.724 177.749 41.832C177.585 41.936 177.421 42.006 177.257 42.042C177.097 42.078 176.949 42.096 176.813 42.096ZM176.249 40.002H177.353C177.349 39.834 177.325 39.702 177.281 39.606C177.241 39.506 177.185 39.434 177.113 39.39C177.041 39.346 176.957 39.324 176.861 39.324C176.685 39.324 176.547 39.388 176.447 39.516C176.347 39.64 176.281 39.802 176.249 40.002ZM178.619 42V41.61C178.731 41.61 178.811 41.588 178.859 41.544C178.907 41.5 178.937 41.438 178.949 41.358C178.965 41.274 178.973 41.18 178.973 41.076V40.068C178.973 39.996 178.975 39.916 178.979 39.828C178.983 39.736 178.989 39.646 178.997 39.558C178.933 39.562 178.857 39.566 178.769 39.57C178.685 39.57 178.621 39.572 178.577 39.576V39.12C178.761 39.12 178.917 39.11 179.045 39.09C179.173 39.07 179.273 39.046 179.345 39.018C179.421 38.99 179.473 38.964 179.501 38.94H179.795C179.803 38.992 179.807 39.03 179.807 39.054C179.807 39.078 179.807 39.102 179.807 39.126C179.811 39.146 179.819 39.184 179.831 39.24C179.911 39.176 180.003 39.12 180.107 39.072C180.211 39.02 180.315 38.98 180.419 38.952C180.523 38.92 180.615 38.904 180.695 38.904C181.063 38.904 181.323 39.01 181.475 39.222C181.631 39.43 181.709 39.766 181.709 40.23V41.034C181.709 41.09 181.707 41.17 181.703 41.274C181.699 41.374 181.693 41.47 181.685 41.562C181.753 41.554 181.825 41.55 181.901 41.55C181.977 41.546 182.035 41.544 182.075 41.544V42H180.503V41.61C180.615 41.61 180.695 41.588 180.743 41.544C180.795 41.5 180.827 41.438 180.839 41.358C180.855 41.274 180.863 41.18 180.863 41.076L180.857 40.224C180.857 39.964 180.819 39.772 180.743 39.648C180.671 39.52 180.547 39.456 180.371 39.456C180.271 39.456 180.171 39.478 180.071 39.522C179.975 39.566 179.893 39.618 179.825 39.678C179.825 39.734 179.825 39.792 179.825 39.852C179.825 39.908 179.825 39.964 179.825 40.02V41.034C179.825 41.09 179.823 41.17 179.819 41.274C179.815 41.374 179.809 41.47 179.801 41.562C179.865 41.554 179.935 41.55 180.011 41.55C180.091 41.546 180.151 41.544 180.191 41.544V42H178.619ZM183.598 42.096C183.478 42.096 183.362 42.082 183.25 42.054C183.138 42.026 183.038 41.974 182.95 41.898C182.862 41.818 182.792 41.702 182.74 41.55C182.688 41.398 182.662 41.196 182.662 40.944L182.674 39.498H182.266V39C182.39 38.996 182.51 38.954 182.626 38.874C182.742 38.794 182.84 38.69 182.92 38.562C183.004 38.434 183.06 38.3 183.088 38.16H183.532L183.526 39H184.288V39.462L183.526 39.48L183.52 40.956C183.52 41.048 183.528 41.14 183.544 41.232C183.564 41.32 183.6 41.394 183.652 41.454C183.704 41.51 183.78 41.538 183.88 41.538C183.936 41.538 184.012 41.518 184.108 41.478C184.208 41.438 184.314 41.338 184.426 41.178L184.714 41.448C184.606 41.608 184.494 41.732 184.378 41.82C184.262 41.908 184.15 41.972 184.042 42.012C183.938 42.052 183.846 42.076 183.766 42.084C183.686 42.092 183.63 42.096 183.598 42.096ZM186.311 42.096C186.019 42.096 185.761 42.032 185.537 41.904C185.313 41.772 185.139 41.588 185.015 41.352C184.891 41.112 184.829 40.83 184.829 40.506C184.829 40.226 184.891 39.964 185.015 39.72C185.139 39.476 185.313 39.28 185.537 39.132C185.765 38.98 186.029 38.904 186.329 38.904C186.497 38.904 186.661 38.928 186.821 38.976C186.981 39.02 187.125 39.098 187.253 39.21C187.385 39.322 187.489 39.474 187.565 39.666C187.645 39.858 187.683 40.098 187.679 40.386L185.711 40.422C185.711 40.638 185.737 40.832 185.789 41.004C185.845 41.176 185.935 41.312 186.059 41.412C186.183 41.512 186.349 41.562 186.557 41.562C186.637 41.562 186.727 41.548 186.827 41.52C186.931 41.492 187.035 41.446 187.139 41.382C187.247 41.314 187.347 41.224 187.439 41.112L187.709 41.364C187.565 41.568 187.411 41.724 187.247 41.832C187.083 41.936 186.919 42.006 186.755 42.042C186.595 42.078 186.447 42.096 186.311 42.096ZM185.747 40.002H186.851C186.847 39.834 186.823 39.702 186.779 39.606C186.739 39.506 186.683 39.434 186.611 39.39C186.539 39.346 186.455 39.324 186.359 39.324C186.183 39.324 186.045 39.388 185.945 39.516C185.845 39.64 185.779 39.802 185.747 40.002ZM188.117 41.61C188.229 41.61 188.309 41.588 188.357 41.544C188.405 41.5 188.435 41.438 188.447 41.358C188.463 41.274 188.471 41.18 188.471 41.076V40.068C188.471 39.996 188.473 39.916 188.477 39.828C188.481 39.736 188.487 39.646 188.495 39.558C188.431 39.562 188.355 39.566 188.267 39.57C188.183 39.57 188.119 39.572 188.075 39.576V39.12H188.315C188.471 39.12 188.613 39.1 188.741 39.06C188.873 39.02 188.959 38.98 188.999 38.94H189.293C189.301 38.98 189.307 39.056 189.311 39.168C189.315 39.276 189.317 39.372 189.317 39.456C189.425 39.324 189.527 39.218 189.623 39.138C189.719 39.058 189.813 39 189.905 38.964C190.001 38.924 190.097 38.904 190.193 38.904C190.333 38.904 190.455 38.944 190.559 39.024C190.663 39.1 190.715 39.226 190.715 39.402C190.715 39.462 190.701 39.526 190.673 39.594C190.645 39.658 190.601 39.712 190.541 39.756C190.481 39.8 190.399 39.822 190.295 39.822C190.215 39.822 190.133 39.798 190.049 39.75C189.965 39.702 189.917 39.61 189.905 39.474C189.825 39.474 189.745 39.508 189.665 39.576C189.585 39.64 189.513 39.718 189.449 39.81C189.389 39.898 189.347 39.98 189.323 40.056V41.034C189.323 41.09 189.321 41.17 189.317 41.274C189.313 41.374 189.307 41.47 189.299 41.562C189.363 41.554 189.433 41.55 189.509 41.55C189.589 41.546 189.649 41.544 189.689 41.544V42H188.117V41.61Z" fill="#CEAC54"/>
</g>
<defs>
<clipPath id="clip0_1214_2247">
<rect width="202" height="47" fill="white"/>
</clipPath>
</defs>
</svg>
